<svg width="80" height="80" viewBox="0 0 80 80" fill="none" xmlns="http://www.w3.org/2000/svg">
  <!-- Background circle with subtle gradient -->
  <defs>
    <linearGradient id="bgGradient" x1="0%" y1="0%" x2="100%" y2="100%">
      <stop offset="0%" style="stop-color:#f8f9fa;stop-opacity:1" />
      <stop offset="100%" style="stop-color:#e9ecef;stop-opacity:1" />
    </linearGradient>
  </defs>
  
  <circle cx="40" cy="40" r="38" fill="url(#bgGradient)" stroke="#dee2e6" stroke-width="1"/>
  
  <!-- Simple, elegant movie production text -->
  <text x="40" y="35" text-anchor="middle" font-family="Arial, sans-serif" font-size="10" font-weight="bold" fill="#6c757d">MOVIE</text>
  <text x="40" y="47" text-anchor="middle" font-family="Arial, sans-serif" font-size="10" font-weight="bold" fill="#6c757d">PROD</text>
  
  <!-- Simple film strip decoration -->
  <rect x="25" y="55" width="30" height="2" fill="#adb5bd"/>
  <rect x="27" y="55" width="1" height="2" fill="#6c757d"/>
  <rect x="30" y="55" width="1" height="2" fill="#6c757d"/>
  <rect x="33" y="55" width="1" height="2" fill="#6c757d"/>
  <rect x="36" y="55" width="1" height="2" fill="#6c757d"/>
  <rect x="39" y="55" width="1" height="2" fill="#6c757d"/>
  <rect x="42" y="55" width="1" height="2" fill="#6c757d"/>
  <rect x="45" y="55" width="1" height="2" fill="#6c757d"/>
  <rect x="48" y="55" width="1" height="2" fill="#6c757d"/>
  <rect x="51" y="55" width="1" height="2" fill="#6c757d"/>
  
  <!-- Subtle corner decorations -->
  <circle cx="15" cy="15" r="1" fill="#dee2e6"/>
  <circle cx="65" cy="15" r="1" fill="#dee2e6"/>
  <circle cx="15" cy="65" r="1" fill="#dee2e6"/>
  <circle cx="65" cy="65" r="1" fill="#dee2e6"/>
</svg> 