<svg width="120" height="120" viewBox="0 0 120 120" fill="none" xmlns="http://www.w3.org/2000/svg">
  <!-- Background circle with subtle gradient -->
  <defs>
    <linearGradient id="bgGradient" x1="0%" y1="0%" x2="100%" y2="100%">
      <stop offset="0%" style="stop-color:#f8f9fa;stop-opacity:1" />
      <stop offset="100%" style="stop-color:#e9ecef;stop-opacity:1" />
    </linearGradient>
  </defs>
  
  <circle cx="60" cy="60" r="58" fill="url(#bgGradient)" stroke="#dee2e6" stroke-width="1.5"/>
  
  <!-- Simple, elegant movie production text -->
  <text x="60" y="55" text-anchor="middle" font-family="Arial, sans-serif" font-size="14" font-weight="bold" fill="#6c757d">MOVIE</text>
  <text x="60" y="70" text-anchor="middle" font-family="Arial, sans-serif" font-size="14" font-weight="bold" fill="#6c757d">PRODUCTION</text>
  
  <!-- Simple film strip decoration -->
  <rect x="40" y="80" width="40" height="3" fill="#adb5bd"/>
  <rect x="42" y="80" width="1" height="3" fill="#6c757d"/>
  <rect x="46" y="80" width="1" height="3" fill="#6c757d"/>
  <rect x="50" y="80" width="1" height="3" fill="#6c757d"/>
  <rect x="54" y="80" width="1" height="3" fill="#6c757d"/>
  <rect x="58" y="80" width="1" height="3" fill="#6c757d"/>
  <rect x="62" y="80" width="1" height="3" fill="#6c757d"/>
  <rect x="66" y="80" width="1" height="3" fill="#6c757d"/>
  <rect x="70" y="80" width="1" height="3" fill="#6c757d"/>
  <rect x="74" y="80" width="1" height="3" fill="#6c757d"/>
  <rect x="78" y="80" width="1" height="3" fill="#6c757d"/>
  
  <!-- Subtle corner decorations -->
  <circle cx="22" cy="22" r="1.5" fill="#dee2e6"/>
  <circle cx="98" cy="22" r="1.5" fill="#dee2e6"/>
  <circle cx="22" cy="98" r="1.5" fill="#dee2e6"/>
  <circle cx="98" cy="98" r="1.5" fill="#dee2e6"/>
</svg> 